<?xml version="1.0" standalone="no"?>
<!DOCTYPE svg PUBLIC "-//W3C//DTD SVG 20010904//EN"
 "http://www.w3.org/TR/2001/REC-SVG-20010904/DTD/svg10.dtd">
<svg version="1.0" xmlns="http://www.w3.org/2000/svg"
 width="366.000000pt" height="366.000000pt" viewBox="0 0 366.000000 366.000000"
 preserveAspectRatio="xMidYMid meet">
<metadata>
Created by potrace 1.11, written by Peter Selinger 2001-2013
</metadata>
<g transform="translate(0.000000,366.000000) scale(0.100000,-0.100000)"
fill="#000000" stroke="none">
<path d="M927 3617 c-27 -27 -180 -226 -741 -961 -197 -257 -189 -243 -165
-289 7 -12 28 -42 49 -67 20 -25 157 -205 305 -400 148 -195 289 -382 315
-415 25 -33 167 -220 315 -415 148 -195 310 -409 360 -475 50 -66 149 -196
219 -290 71 -93 137 -178 148 -187 29 -26 70 -22 98 7 13 14 26 25 30 25 3 0
28 -29 54 -65 26 -36 51 -65 56 -65 5 0 19 15 32 32 12 18 124 166 247 328
335 440 451 593 626 825 87 116 213 282 280 370 67 88 167 219 221 291 54 72
141 185 192 252 l92 122 -58 78 c-33 42 -62 88 -66 102 -5 21 -168 240 -349
470 -24 30 -162 209 -306 398 -145 188 -271 347 -281 352 -12 6 -320 10 -830
10 l-812 0 -31 -33z m705 -162 l-27 -45 -216 0 -217 0 -43 -57 -44 -58 -6 50
c-4 28 -9 74 -12 103 l-4 52 298 0 299 0 -28 -45z m854 29 c-3 -9 -6 -29 -6
-45 l0 -29 -260 0 -260 0 -20 40 c-11 21 -20 42 -20 45 0 3 129 5 286 5 257 0
286 -2 280 -16z m-1540 -286 l6 -76 -108 -142 c-60 -78 -160 -207 -223 -288
-62 -81 -123 -162 -135 -179 l-21 -33 -112 0 c-62 0 -113 2 -113 4 0 3 60 82
132 177 161 208 430 559 501 653 l52 69 7 -54 c4 -30 10 -88 14 -131z m-606
-878 c0 -5 -4 -10 -8 -10 -5 0 -15 -11 -22 -25 -17 -33 -23 -32 -54 10 l-27
35 55 0 c31 0 56 -4 56 -10z"/>
</g>
</svg>
